<svg preserveAspectRatio="none" overflow="visible" style="display: block;" width="41.6729" height="26.3944" viewBox="0 0 41.6729 26.3944" fill="none" xmlns="http://www.w3.org/2000/svg">
<g id="&#235;&#176;&#176;&#234;&#178;&#189;&#38;&#236;&#156;&#164;&#234;&#179;&#189;&#236;&#132;&#160; &#235;&#136;&#132;&#235;&#129;&#188;" filter="url(#filter0_g_0_276)">
<path d="M41.4413 0.230388C42.0098 6.27076 40.65 11.2212 37.5019 15.8495C37.4685 15.8114 37.4307 15.7742 37.3876 15.7382L37.2519 15.1923L37.3759 15.1503L37.1249 14.6777L36.749 13.1581C36.7522 13.1494 36.7561 13.1404 36.7597 13.1308L36.7617 13.1278C36.8143 12.9836 36.8651 12.8383 36.9159 12.6933H36.915C36.9663 12.5488 37.0645 12.2985 37.0634 12.0224C37.0623 11.7451 36.9627 11.4942 36.9091 11.3466L36.1777 9.33488C36.1774 9.33414 36.1422 9.23322 36.124 9.18449C36.1076 9.14085 36.0595 9.00999 35.9863 8.89543L35.9853 8.8964C35.9288 8.80759 35.8624 8.72745 35.787 8.65812L35.412 8.3134L34.9316 8.48429L34.5527 8.61906C34.4532 8.65376 34.3968 8.67357 34.3652 8.68351L34.2636 8.71574L34.246 8.70304L33.832 8.84953C33.6435 8.91597 33.4175 8.99488 33.2812 9.04289L32.8603 9.19133L32.8456 9.24504L32.7656 9.27726C32.7084 9.30046 32.6722 9.31678 32.6523 9.32414C32.6246 9.33434 32.6222 9.33407 32.5732 9.35051C32.524 9.36702 32.4692 9.38596 32.3876 9.41886C32.3277 9.44304 32.2408 9.47922 32.1572 9.51359L31.6952 9.70304L31.6396 10.2001C31.6366 10.2268 31.6242 10.328 31.6386 10.454L31.664 10.5878C31.7178 10.7892 31.8033 11.0075 31.8456 11.1239L32.3593 12.537L30.4286 13.0859V13.0829L30.2714 13.1142L30.1103 12.3583L28.4814 4.75578L28.2685 3.76847L27.3359 4.15226L25.8115 4.77726L25.1464 5.0507L25.3115 5.7509L25.3788 6.03605L25.1122 6.08586L22.3232 6.60929L22.3095 6.52238L21.4579 6.69523L17.8574 7.42472L17.1855 7.56144H15.4892L15.2451 5.76652L15.1337 4.95402L11.8788 5.30363L11.9521 6.12785L12.4335 11.5497L12.4999 12.3085L13.2626 12.3183L14.8281 12.3388L15.662 12.3486L15.6816 11.5146L15.6982 10.789L16.9189 10.6132L17.7226 10.496L17.7167 10.4501L18.2802 10.3964L19.8779 10.2431L20.0908 12.3134L20.1747 13.1288L20.6533 13.0927L20.6982 13.582L20.8515 15.2665C20.4594 14.5646 19.8142 14.0636 19.0712 13.7958H19.0722C18.0431 13.4041 16.7198 13.4086 15.6767 14.1093L15.6747 14.1103C15.5319 14.2067 15.399 14.312 15.2763 14.4247L15.2187 13.8818L14.4101 13.9374L10.9755 14.1747L10.7939 13.2958L10.6386 12.5458L10.5283 12.5575C11.1094 11.9498 11.3244 11.0888 11.3603 10.4111L11.3613 10.3945V10.3778C11.3667 9.98944 11.289 9.60241 11.1318 9.24699L11.2294 8.80265L11.9579 8.70793L11.8027 7.83781L11.5839 6.61613L11.4462 5.84269L9.65521 6.03508L9.55169 5.06926L8.77532 5.08879L7.34466 5.12687L6.43157 5.15129L6.57318 6.47355L5.67181 6.5634L4.82611 6.64738L5.14251 9.59562L5.84954 9.50285C5.71723 9.87642 5.65942 10.2634 5.65032 10.6181V10.6298C5.64437 11.1184 5.755 11.6432 6.02337 12.0976L6.03607 12.1191L6.04876 12.1396C6.32706 12.5538 6.73337 12.8486 7.13568 13.0273V13.0263C7.24791 13.0772 7.36543 13.1191 7.48431 13.1562L7.57415 13.7577L7.98821 16.537L8.10052 17.2841L8.85443 17.2558L14.2001 17.0556C14.2219 18.2 14.7548 19.3621 15.9091 20.0126L15.9208 20.0195L15.9326 20.0253C16.0494 20.0863 16.2471 20.1904 16.4755 20.2607V20.2616C17.3634 20.5653 18.4469 20.4926 19.2753 20.1698L19.2909 20.165C19.7033 19.995 20.1528 19.7305 20.5009 19.2987C20.7852 18.946 20.9856 18.5408 21.1113 18.1171L21.2685 19.8329L21.3378 20.5907L22.0976 20.5995L23.663 20.62L24.537 20.6308L24.5175 19.7577L24.4824 18.2597L25.6728 18.078L26.332 17.9775L26.5634 19.2851L26.6972 20.0458L27.4667 19.9784L30.6855 19.6962L31.6034 19.6171L31.4921 18.997L34.2294 18.5351L34.6699 18.4599L34.7382 18.7333L34.8212 19.0702C32.8625 20.9705 30.5745 22.4482 28.0732 23.4101L28.2753 25.1982C24.9878 25.6129 21.5766 25.9276 18.2704 26.289L18.0771 24.4911C12.6044 23.6354 7.63223 20.4774 4.24896 15.7089C2.33003 13.0034 1.00408 9.86772 0.373957 6.54484C0.270713 6.02636 0.0573103 5.09933 0.115168 4.60636C0.272498 4.48501 0.47798 4.49555 0.689387 4.4716L41.4286 0.105388L41.4413 0.230388ZM16.748 19.4638C16.8279 19.4911 16.9112 19.5135 16.996 19.5331C16.9111 19.5135 16.8279 19.4921 16.748 19.4648L16.6376 19.4277C16.6738 19.4414 16.7106 19.4533 16.748 19.4638ZM26.7646 11.914L26.9736 12.7997L27.1337 13.4804L27.8339 13.4482L28.8574 13.3993L26.4443 13.8876L25.6376 14.0507L25.7802 14.8612L25.8095 15.0282H25.3974L24.247 15.0263L23.9902 13.2138L23.9091 12.6435L24.3788 12.2695L24.415 12.2655L25.7411 12.1161L26.5566 12.0234L26.5409 11.8515L26.7646 11.914ZM27.6992 12.206L27.7939 12.6054L29.2851 12.5351L27.7929 12.6064L27.6982 12.206H27.6992ZM6.74896 11.6689C6.77039 11.7008 6.79307 11.7324 6.81732 11.7626C6.79315 11.7325 6.77032 11.7016 6.74896 11.6698C6.72684 11.6324 6.7066 11.5931 6.68743 11.5536C6.70658 11.593 6.72689 11.6315 6.74896 11.6689ZM27.4238 11.037L27.4228 11.0351L26.874 8.70304L27.4238 11.037ZM26.4648 10.6445L26.4443 10.7255L26.4218 10.4618L26.4648 10.6445ZM34.163 9.68644C34.148 9.67136 34.13 9.65721 34.1122 9.64445C33.9238 9.71088 33.6955 9.79026 33.5605 9.83781C33.6955 9.79026 33.9238 9.70991 34.1122 9.64347C34.1301 9.65628 34.148 9.67119 34.163 9.68644ZM35.2763 9.34953C35.3139 9.40849 35.3596 9.55012 35.3857 9.62199H35.3847C35.3586 9.55002 35.3129 9.40833 35.2753 9.34953H35.2763Z" fill="#40A39B"/>
</g>
<defs>
<filter id="filter0_g_0_276" x="3.27327e-10" y="0" width="41.6729" height="26.3944" filterUnits="userSpaceOnUse" color-interpolation-filters="sRGB">
<feFlood flood-opacity="0" result="BackgroundImageFix"/>
<feBlend mode="normal" in="SourceGraphic" in2="BackgroundImageFix" result="shape"/>
<feTurbulence type="fractalNoise" baseFrequency="0.99900001287460327 0.99900001287460327" numOctaves="3" seed="3459" />
<feDisplacementMap in="shape" scale="0.21077655255794525" xChannelSelector="R" yChannelSelector="G" result="displacedImage" width="100%" height="100%" />
<feMerge result="effect1_texture_0_276">
<feMergeNode in="displacedImage"/>
</feMerge>
</filter>
</defs>
</svg>
