<svg preserveAspectRatio="none" overflow="visible" style="display: block;" width="49.7836" height="28.4923" viewBox="0 0 49.7836 28.4923" fill="none" xmlns="http://www.w3.org/2000/svg">
<g id="Vector" filter="url(#filter0_g_0_466)">
<path d="M1.05401 0.311759L49.4763 0.324397L49.475 0.471985C49.3703 8.41194 46.6573 14.4837 41.4237 19.9342C38.417 22.8816 34.7803 24.9734 30.8404 26.0218L30.8526 28.1494C26.937 28.2217 22.8887 28.1604 18.9579 28.1677V26.0306C12.6351 24.3341 7.1911 19.9956 3.81759 13.965C1.90431 10.5436 0.742398 6.69233 0.421469 2.70822C0.365629 2.08601 0.232271 0.969764 0.36252 0.397682C0.562721 0.274937 0.802559 0.31322 1.05401 0.311759Z" fill="#136F67"/>
</g>
<defs>
<filter id="filter0_g_0_466" x="3.22923e-10" y="-4.87296e-10" width="49.7836" height="28.4923" filterUnits="userSpaceOnUse" color-interpolation-filters="sRGB">
<feFlood flood-opacity="0" result="BackgroundImageFix"/>
<feBlend mode="normal" in="SourceGraphic" in2="BackgroundImageFix" result="shape"/>
<feTurbulence type="fractalNoise" baseFrequency="0.99900001287460327 0.99900001287460327" numOctaves="3" seed="3459" />
<feDisplacementMap in="shape" scale="0.61444574594497681" xChannelSelector="R" yChannelSelector="G" result="displacedImage" width="100%" height="100%" />
<feMerge result="effect1_texture_0_466">
<feMergeNode in="displacedImage"/>
</feMerge>
</filter>
</defs>
</svg>
